<?xml version="1.0" encoding="UTF-8" standalone="no"?>
<!DOCTYPE svg PUBLIC "-//W3C//DTD SVG 1.1//EN" "http://www.w3.org/Graphics/SVG/1.1/DTD/svg11.dtd">
<svg width="100%" height="100%" viewBox="0 0 3508 2481" version="1.1" xmlns="http://www.w3.org/2000/svg" xmlns:xlink="http://www.w3.org/1999/xlink" xml:space="preserve" xmlns:serif="http://www.serif.com/" style="fill-rule:evenodd;clip-rule:evenodd;stroke-linejoin:round;stroke-miterlimit:2;">
    <rect x="0" y="0" width="3507.87" height="2480.32" style="fill:white;"/>
    <g transform="matrix(1,0,0,1,1113.94,96.3287)">
        <text x="347px" y="1726.21px" style="font-family:'CenturyGothic', 'Century Gothic', sans-serif;font-size:1666.67px;">r</text>
    </g>
    <g id="gears.svg" transform="matrix(1.00838e-16,1.64681,-1.64681,1.00838e-16,2046.94,679)">
        <g transform="matrix(1,0,0,1,-256,-256)">
            <g transform="matrix(0.909396,0,0,0.899329,26.5302,24.3087)">
                <path d="M348,327.195L348,291.454L315.564,279.542C312.739,268.631 308.949,258.327 303.348,248.855L303.673,248.813L319.111,216.66L293.911,191.391L261.793,206.69L261.762,206.735C252.29,201.134 242.004,197.579 231.091,194.757L219.186,162L183.447,162L171.534,194.759C160.621,197.58 150.321,201.533 140.849,207.138L140.801,206.89L108.652,191.491L83.383,216.71L98.682,248.834L98.732,248.873C93.127,258.344 87.573,268.637 84.752,279.548L50,291.454L50,327.195L84.753,339.108C87.574,350.023 92.527,360.319 98.133,369.793L98.382,369.838L83.235,401.985L108.578,427.259L140.766,411.961L140.831,411.915C150.305,417.512 160.613,422.741 171.526,425.567L183.447,460L219.186,460L231.101,425.568C242.014,422.742 252.31,417.954 261.782,412.353L261.832,412.178L293.983,427.37L319.25,402.044L303.951,369.862L303.905,369.801C309.506,360.328 312.74,350.025 315.565,339.113L348,327.195ZM201.318,368.891C168.421,368.891 141.752,342.229 141.752,309.326C141.752,276.43 168.421,249.758 201.318,249.758C234.219,249.758 260.884,276.43 260.884,309.326C260.884,342.229 234.219,368.891 201.318,368.891Z" style="fill-rule:nonzero;"/>
            </g>
            <path d="M462.238,111.24L454.423,92.374L434.193,93.386C430.32,88.24 425.808,83.742 420.776,79.966L420.814,79.923L421.874,59.605L403.015,51.783L389.385,66.89L389.377,66.921C383.148,66.038 376.758,65.988 370.389,66.896L356.76,51.774L337.893,59.589L338.948,79.909C333.796,83.782 329.321,88.331 325.545,93.369L325.507,93.348L305.19,92.303L297.391,111.156L312.494,124.772L312.532,124.793C311.801,130.628 311.497,137.451 312.399,143.831L297.191,157.493L305.003,176.363L325.417,175.277C329.285,180.421 333.889,184.89 338.912,188.662L338.925,188.687L337.895,208.999L358.563,216.814L374,201.703L374,201.67C378,202.401 384.818,202.605 391.193,201.71L403.922,216.824L422.342,209.011L421.056,188.687C426.2,184.812 430.577,180.263 434.353,175.231L434.33,175.242L454.617,176.289L462.419,157.425L447.298,143.801L447.265,143.782C448.142,137.56 448.117,131.202 447.215,124.829L462.238,111.24ZM392.912,165.741C375.553,172.931 355.642,164.688 348.45,147.32C341.254,129.956 349.497,110.048 366.865,102.855C384.236,95.663 404.139,103.908 411.336,121.272C418.523,138.643 410.276,158.547 392.912,165.741Z" style="fill-rule:nonzero;"/>
        </g>
    </g>
</svg>
